<svg width="64" height="64" viewBox="0 0 64 64" fill="none" xmlns="http://www.w3.org/2000/svg">
<g clip-path="url(#clip0_101_42)">
<path d="M12.3088 0C12.8393 0 13.348 0.210712 13.723 0.585782L23.2899 10.1526L64.8576 0.585764C33.2646 0.210693 33.7413 0 34.2717 0H43.7574C44.6483 0 45.0945 1.07718 44.4645 1.70713L23.2897 22.8803L2.1164 1.70711C1.48643 1.07714 1.9646 0 2.82351 0H12.3088Z" fill="white"/>
<path d="M0.585786 24.8475C0.210713 24.4724 0 23.9637 0 23.4364V13.948C0 13.057 1.07714 12.6109 1.70711 13.2409L23.6484 34.8622L57.605 0.585786C57.98 0.210715 58.4888 0 59.0192 0H63C63.5523 0 64 0.447715 64 1V6.09026C64 6.62069 63.7893 7.1294 63.4142 7.50447L47.931 22.9877L63.4142 38.4709C63.7893 38.846 64 39.3547 64 39.8851V49.3704C64 50.2613 62.9229 50.7075 62.2929 50.0775L41.567 29.3516L7.50423 63.4142C7.12915 63.7893 6.62044 64 6.09001 64H0.999999C0.447715 64 0 63.5523 0 63V59.0189C0 58.4885 0.210715 57.9798 0.585789 57.6047L16.9645 41.2261L0.585786 24.8475Z" fill="white"/>
<path d="M64.7003 63.4142C64.6453 63.7893 31.8166 64 31.2861 64H21.8008C20.9099 64 20.4638 62.9229 21.0937 62.2929L41.4369 41.9497L61.7801 62.2929C62.4101 62.9229 61.9639 64 61.073 64H51.5877C51.0573 64 50.5486 63.7893 50.1735 63.4142L41.4369 54.6776L64.7003 63.4142Z" fill="white"/>
</g>
<defs>
<clipPath id="clip0_101_42">
<rect width="64" height="64" fill="white"/>
</clipPath>
</defs>
</svg>
